# xmcd CD database file
#
# Track frame offsets:
#	150
#	18886
#	36095
#	52825
#	67285
#	80863
#	99826
#	116181
#	132415
#	146049
#	169808
#
# Disc length: 2470 seconds
#
# Revision: 0
# Processed by: cddbd v1.5.1PL0 Copyright (c) Steve Scherf et al.
# Submitted via: CDex 1.50
#
DISCID=9b09a40b
DTITLE=Jesse Taylor - Texas Tattoo
DYEAR=1998
DGENRE=Country
TTITLE0=You'll Never Get Me Up
TTITLE1=Language of the Blues
TTITLE2=Livin' for You
TTITLE3=Naked Light of Day
TTITLE4=I'm Just Livin' the Blues
TTITLE5=Lookin' for You
TTITLE6=Two Days Off in Amsterdam
TTITLE7=Caveman
TTITLE8=Stubbs Boogie
TTITLE9=I've Got To Know
TTITLE10=Cheque Book
EXTD=YEAR: 1998
EXTT0=
EXTT1=
EXTT2=
EXTT3=
EXTT4=
EXTT5=
EXTT6=
EXTT7=
EXTT8=
EXTT9=
EXTT10=
PLAYORDER=
